<?xml version="1.0" encoding="utf-8"?>
<!-- Generator: Adobe Illustrator 23.0.1, SVG Export Plug-In . SVG Version: 6.00 Build 0)  -->
<svg version="1.1" id="Layer_1" xmlns="http://www.w3.org/2000/svg" xmlns:xlink="http://www.w3.org/1999/xlink" x="0px" y="0px"
	 viewBox="0 0 227 263" style="enable-background:new 0 0 227 263;" xml:space="preserve">
<style type="text/css">
	.st0{fill:#060606;}
	.st1{opacity:0;}
	.st2{fill:#050505;}
</style>
<g>
	<g>
		<g>
			<g>
				<path id="b1EcNpF3Pt" class="st0" d="M125.2,86.2l10-11.2h-20h-20l10,11.2l10,11.2L125.2,86.2z"/>
			</g>
		</g>
		<g>
			<g>
				<g>
					<path id="c3dVspPlNS" class="st0" d="M0,0"/>
				</g>
			</g>
		</g>
		<g>
			<g>
				<g>
					<g id="a2Rf3AqNsq">
						<g class="st1">
							<path d="M105.3,260.5l101.2-158.6c25.6-53,17.3-83.9-24.8-93c-42.1-9-64.6,15.8-67.5,74.4"/>
						</g>
						<g>
							<path class="st2" d="M109.5,263.1l-8.4-5.4l101-158.3c13.9-28.9,17.4-50.8,10.3-65.1c-5-10.2-15.7-17.1-31.8-20.5
								c-16.4-3.5-29.1-1.6-38.8,5.8c-13.4,10.3-21.1,31.8-22.7,63.9l-10-0.5c1.8-35.7,10.5-59,26.6-71.4c12-9.2,27.8-11.7,47-7.6
								c19.3,4.1,32.3,12.8,38.7,25.9c8.6,17.5,5.2,41.8-10.4,74.1l-0.3,0.5L109.5,263.1z"/>
						</g>
					</g>
				</g>
			</g>
		</g>
		<g>
			<g>
				<g>
					<g id="j2ecMWbjeB">
						<g class="st1">
							<path d="M123.2,260.5L22,101.9c-25.6-53-17.3-83.9,24.8-93c42.1-9,64.6,15.8,67.5,74.4"/>
						</g>
						<g>
							<path class="st2" d="M119,263.1L17.6,104.3l-0.1-0.3C1.9,71.7-1.5,47.4,7,29.9C13.4,16.8,26.4,8.1,45.7,4
								c19.2-4.1,35-1.6,47,7.6C108.8,24,117.5,47.3,119.2,83l-10,0.5c-1.6-32.1-9.2-53.6-22.7-63.9c-9.7-7.4-22.3-9.3-38.8-5.8
								C31.7,17.2,21,24.1,16,34.3c-7,14.4-3.6,36.3,10.3,65.1l101,158.3L119,263.1z"/>
						</g>
					</g>
				</g>
			</g>
		</g>
	</g>
</g>
</svg>
