<?xml version="1.0" encoding="utf-8"?>
<!-- Generator: Adobe Illustrator 23.0.1, SVG Export Plug-In . SVG Version: 6.00 Build 0)  -->
<svg version="1.1" id="Layer_1" xmlns="http://www.w3.org/2000/svg" xmlns:xlink="http://www.w3.org/1999/xlink" x="0px" y="0px"
	 viewBox="0 0 187 264" style="enable-background:new 0 0 187 264;" xml:space="preserve">
<style type="text/css">
	.st0{opacity:0;}
	.st1{fill:#050505;}
	.st2{fill:#060606;}
</style>
<g>
	<g>
		<g>
			<g>
				<g>
					<g id="c51Bm0LsI">
						<g class="st0">
							<path d="M177.3,131.3c0,68.2-38,123.5-84.9,123.5S7.6,199.4,7.6,131.3c0-68.2,38-123.5,84.9-123.5S177.3,63.1,177.3,131.3z"
								/>
						</g>
						<g>
							<path d="M92.5,259.8c-24.3,0-47.1-13.6-64.1-38.4c-16.6-24.2-25.7-56.2-25.7-90.1c0-34,9.1-66,25.7-90.1
								c17-24.7,39.8-38.4,64.1-38.4s47.1,13.6,64.1,38.4c16.6,24.2,25.7,56.2,25.7,90.1c0,34-9.1,66-25.7,90.1
								C139.6,246.2,116.8,259.8,92.5,259.8z M92.5,12.8c-44,0-79.9,53.2-79.9,118.5c0,65.3,35.8,118.5,79.9,118.5
								s79.9-53.2,79.9-118.5C172.3,65.9,136.5,12.8,92.5,12.8z"/>
						</g>
					</g>
				</g>
			</g>
		</g>
		<g>
			<g>
				<g>
					<g id="e1SUO8HpT">
						<g class="st0">
							<rect x="40" y="91.2" width="35.4" height="32.1"/>
						</g>
						<g>
							<path class="st1" d="M80.4,128.3H35V86.2h45.4V128.3z M45,118.3h25.4V96.2H45V118.3z"/>
						</g>
					</g>
				</g>
			</g>
		</g>
		<g>
			<g>
				<g>
					<g id="aLh0QfU7Z">
						<g class="st0">
							<rect x="110" y="91.2" width="35.4" height="32.1"/>
						</g>
						<g>
							<path class="st1" d="M150.4,128.3H105V86.2h45.4V128.3z M115,118.3h25.4V96.2H115V118.3z"/>
						</g>
					</g>
				</g>
			</g>
		</g>
		<g>
			<g>
				<path id="aom12juMv" class="st2" d="M119,190.3l26.8-30.1H92.2H38.6l26.8,30.1l26.8,30.1L119,190.3z"/>
			</g>
		</g>
	</g>
</g>
</svg>
