<?xml version="1.0" encoding="utf-8"?>
<!-- Generator: Adobe Illustrator 23.0.1, SVG Export Plug-In . SVG Version: 6.00 Build 0)  -->
<svg version="1.1" id="Layer_1" xmlns="http://www.w3.org/2000/svg" xmlns:xlink="http://www.w3.org/1999/xlink" x="0px" y="0px"
	 viewBox="0 0 240 350" style="enable-background:new 0 0 240 350;" xml:space="preserve">
<style type="text/css">
	.st0{fill:#060606;}
	.st1{opacity:0;}
	.st2{fill:none;stroke:#000000;stroke-width:10;}
</style>
<g>
	<g>
		<g>
			<g>
				<g id="b1hlDO9cfn">
					<path class="st0" d="M32.5,333.9l10,11.2h-20h-20l10-11.2l10-11.2L32.5,333.9z"/>
				</g>
			</g>
		</g>
		<g>
			<g>
				<g id="a2UkO5x1NQ">
					<path class="st0" d="M227.5,333.9l10,11.2h-20h-20l10-11.2l10-11.2L227.5,333.9z"/>
				</g>
			</g>
		</g>
		<g>
			<g>
				<g>
					<g id="b9tQDRUHY">
						<g class="st1">
							<g>
								<polyline points="220.3,336 120.3,18.6 20.3,336 								"/>
							</g>
						</g>
						<g>
							<g>
								<polygon points="215.6,337.5 120.3,35.2 25.1,337.5 15.6,334.5 120.3,2 225.1,334.5 								"/>
							</g>
						</g>
					</g>
				</g>
			</g>
		</g>
		<g>
			<g>
				<g>
					<g id="b1m3NFvF6">
						<g class="st1">
							<g>
								<line x1="165.2" y1="156" x2="77.7" y2="156"/>
							</g>
						</g>
						<g>
							<g>
								<rect x="77.7" y="151" width="87.5" height="10"/>
							</g>
						</g>
					</g>
				</g>
			</g>
		</g>
		<g>
			<g>
				<g>
					<g id="brRlAkzVs">
						<g class="st1">
							<g>
								<line x1="175.2" y1="196" x2="62.6" y2="196"/>
							</g>
						</g>
						<g>
							<g>
								<rect x="62.6" y="191" width="112.6" height="10"/>
							</g>
						</g>
					</g>
				</g>
			</g>
		</g>
		<g>
			<g>
				<g>
					<g id="c48I4kWs0">
						<g class="st1">
							<g>
								<path d="M0,0"/>
							</g>
						</g>
						<g>
							<g>
								<path class="st2" d="M0,0"/>
							</g>
						</g>
					</g>
				</g>
			</g>
		</g>
	</g>
</g>
</svg>
