<?xml version="1.0" encoding="utf-8"?>
<!-- Generator: Adobe Illustrator 23.0.1, SVG Export Plug-In . SVG Version: 6.00 Build 0)  -->
<svg version="1.1" id="Layer_1" xmlns="http://www.w3.org/2000/svg" xmlns:xlink="http://www.w3.org/1999/xlink" x="0px" y="0px"
	 viewBox="0 0 190 360" style="enable-background:new 0 0 190 360;" xml:space="preserve">
<style type="text/css">
	.st0{opacity:0;}
	.st1{fill:#060606;}
	.st2{clip-path:url(#SVGID_2_);}
	.st3{fill:none;stroke:#000000;stroke-width:20;}
</style>
<g>
	<g>
		<g>
			<g>
				<g>
					<g id="a76F8PWNq">
						<path d="M0,0"/>
					</g>
				</g>
			</g>
		</g>
		<g>
			<g>
				<g>
					<g id="a2KyrZpe7T">
						<path d="M0,0"/>
					</g>
				</g>
			</g>
		</g>
		<g>
			<g>
				<g>
					<g id="e64CwlLL">
						<g class="st0">
							<path d="M17.3,338.7h117.3c32.6-0.6,48.9-28.2,48.9-82.8c0-54.6-16.3-82.2-48.9-82.8H17.3"/>
						</g>
						<g>
							<path d="M17.3,343.7v-10h117.3c29.5-0.5,43.9-26,43.9-77.8c0-51.8-14.4-77.2-44-77.8l-117.2,0v-10h117.3
								c35.8,0.7,53.9,30.2,53.9,87.8c0,57.6-18.1,87.1-53.8,87.8L17.3,343.7z"/>
						</g>
					</g>
				</g>
			</g>
		</g>
		<g>
			<g>
				<g>
					<g id="e2CJH46Esr">
						<g class="st0">
							<path d="M15.4,171.2h110.1c30.6-0.6,45.9-25.9,45.9-75.9c0-50.1-15.3-75.4-45.9-75.9H15.4"/>
						</g>
						<g>
							<path d="M15.4,176.2v-10h110.1c27.5-0.5,40.9-23.7,40.9-70.9c0-47.2-13.4-70.4-41-70.9l-110,0v-10h110.1
								c17.1,0.3,30.1,7.6,38.7,21.8c8.1,13.4,12.2,33.3,12.2,59.1c0,25.8-4.1,45.7-12.2,59.1c-8.6,14.2-21.5,21.5-38.6,21.8
								L15.4,176.2z"/>
						</g>
					</g>
				</g>
			</g>
		</g>
		<g>
			<g>
				<path id="dsrQfEkfl" class="st1" d="M1663.4,590.2L1652,600l0.3-20l0.3-20l11.1,10.2l11.1,10.2L1663.4,590.2z"/>
			</g>
		</g>
		<g>
			<g>
				<defs>
					<path id="SVGID_1_" d="M20.4,341.3"/>
				</defs>
				<clipPath id="SVGID_2_">
					<use xlink:href="#SVGID_1_"  style="overflow:visible;"/>
				</clipPath>
				<g class="st2">
					<g>
						<g id="a1GAMjGH5F_1_">
							<g class="st0">
								<path d="M20.4,341.3"/>
							</g>
							<g>
								<path class="st3" d="M20.4,341.3"/>
							</g>
						</g>
					</g>
				</g>
			</g>
		</g>
		<g>
			<g>
				<g>
					<g id="dHLf8d2Y">
						<g class="st0">
							<line x1="20.4" y1="343.2" x2="20.4" y2="15.8"/>
						</g>
						<g>
							<rect x="15.4" y="15.8" width="10" height="327.3"/>
						</g>
					</g>
				</g>
			</g>
		</g>
		<g>
			<g>
				<g>
					<g id="g3ebrFo1F">
						<g class="st0">
							<line x1="60.4" y1="343.2" x2="60.4" y2="15.8"/>
						</g>
						<g>
							<rect x="55.4" y="15.8" width="10" height="327.3"/>
						</g>
					</g>
				</g>
			</g>
		</g>
		<g>
			<g>
				<g id="f8gl5ZvYL">
					<path class="st1" d="M14.7,346.8l-11.2,10l0-20l0-20l11.2,10l11.2,10L14.7,346.8z"/>
				</g>
			</g>
		</g>
		<g>
			<g>
				<g id="c3vggNPNwn">
					<path class="st1" d="M15.1,33.1L4,43.2l-0.2-20l-0.1-20l11.3,9.9L26.2,23L15.1,33.1z"/>
				</g>
			</g>
		</g>
	</g>
</g>
</svg>
