<?xml version="1.0" encoding="utf-8"?>
<!-- Generator: Adobe Illustrator 23.0.1, SVG Export Plug-In . SVG Version: 6.00 Build 0)  -->
<svg version="1.1" id="Layer_1" xmlns="http://www.w3.org/2000/svg" xmlns:xlink="http://www.w3.org/1999/xlink" x="0px" y="0px"
	 viewBox="0 0 190 340" style="enable-background:new 0 0 190 340;" xml:space="preserve">
<style type="text/css">
	.st0{fill:#060606;}
	.st1{opacity:0;}
</style>
<g>
	<g>
		<g>
			<g>
				<path id="bpoFUsT0n" class="st0" d="M158.4,277.3l-7.6-12.9l19.6,3.9l19.6,3.9l-12,9l-12,9L158.4,277.3z"/>
			</g>
		</g>
		<g>
			<g>
				<g>
					<g id="a1WmN9I506">
						<g class="st1">
							<path d="M169.9,279.7c-19.3,44.7-56.1,59.7-110.4,45.2C-22,303.1-0.7,24.3,77.2,11.7c51.9-8.4,82.1,14.2,90.5,67.8"/>
						</g>
						<g>
							<path d="M96.4,335.3c-11.7,0-24.4-1.8-38.2-5.5c-45.9-12.3-58.3-93.3-55-158.9C6.9,96.9,31.4,14,76.4,6.8
								c26.8-4.3,48.5-0.6,64.6,11c16.5,12,27.2,32.5,31.6,60.9l-9.9,1.5c-4-25.7-13.3-44-27.6-54.4c-13.8-10-33-13.2-57.1-9.3
								c-11.8,1.9-29,12.2-44.2,50.5c-11.3,28.4-18.6,65.4-20.6,104.2c-1.9,36.9,1.4,71.8,9.2,98.2c5.9,19.9,17.3,44.9,38.3,50.5
								c52,13.9,86.2,0,104.5-42.4l9.2,4C159,317.3,132.9,335.3,96.4,335.3z"/>
						</g>
					</g>
				</g>
			</g>
		</g>
		<g>
			<g>
				<g>
					<g id="dprV3FQRd">
						<g class="st1">
							<line x1="54.8" y1="322.5" x2="54.8" y2="24.3"/>
						</g>
						<g>
							<rect x="49.8" y="24.3" width="10" height="298.2"/>
						</g>
					</g>
				</g>
			</g>
		</g>
	</g>
</g>
</svg>
