<?xml version="1.0" encoding="utf-8"?>
<!-- Generator: Adobe Illustrator 23.0.1, SVG Export Plug-In . SVG Version: 6.00 Build 0)  -->
<svg version="1.1" id="Layer_1" xmlns="http://www.w3.org/2000/svg" xmlns:xlink="http://www.w3.org/1999/xlink" x="0px" y="0px"
	 viewBox="0 0 190 360" style="enable-background:new 0 0 190 360;" xml:space="preserve">
<style type="text/css">
	.st0{fill:#FFFFFF;filter:url(#Adobe_OpacityMaskFilter);}
	.st1{mask:url(#maskaqJq9jkaz_1_);}
	.st2{opacity:0;}
	.st3{fill:#060606;}
</style>
<g>
	<g>
		<g>
			<defs>
				<filter id="Adobe_OpacityMaskFilter" filterUnits="userSpaceOnUse" x="23.6" y="17.7" width="161.8" height="327.5">
					<feColorMatrix  type="matrix" values="1 0 0 0 0  0 1 0 0 0  0 0 1 0 0  0 0 0 1 0"/>
				</filter>
			</defs>
			<mask maskUnits="userSpaceOnUse" x="23.6" y="17.7" width="161.8" height="327.5" id="maskaqJq9jkaz_1_">
				<rect x="3.7" y="7.7" class="st0" width="191.8" height="347.5"/>
				<g>
					<path id="b8TxlnhgBw_1_" d="M23.6,335.2h107.2c29.8-1.1,44.7-52.4,44.6-153.7c0-101.4-14.9-152.6-44.6-153.8H23.6"/>
				</g>
			</mask>
			<g class="st1">
				<g>
					<g>
						<g class="st2">
							<path d="M23.6,335.2h107.2c29.8-1.1,44.7-52.4,44.6-153.7c0-101.4-14.9-152.6-44.6-153.8H23.6"/>
						</g>
						<g>
							<path d="M131,345.2H23.6v-20h106.9c10-0.5,18.1-11.3,24.1-32.1c7.1-24.6,10.8-62.2,10.8-111.7c0-49.5-3.6-87.1-10.8-111.7
								c-6-20.8-14.1-31.6-24.1-32.1H23.6v-20l107.5,0c19.6,0.7,34,16.4,42.7,46.5c7.8,26.8,11.6,65.1,11.6,117.3
								c0,52.1-3.8,90.5-11.6,117.3c-8.7,30.1-23.1,45.7-42.7,46.5L131,345.2z"/>
						</g>
					</g>
				</g>
			</g>
		</g>
		<g>
			<g>
				<g>
					<g id="h2NFas1D2f">
						<g class="st2">
							<line x1="22.9" y1="345" x2="22.9" y2="17.7"/>
						</g>
						<g>
							<rect x="17.9" y="17.7" width="10" height="327.3"/>
						</g>
					</g>
				</g>
			</g>
		</g>
		<g>
			<g>
				<g>
					<g id="g20TcVVwf">
						<g class="st2">
							<line x1="59.6" y1="345" x2="59.6" y2="17.7"/>
						</g>
						<g>
							<rect x="54.6" y="17.7" width="10" height="327.3"/>
						</g>
					</g>
				</g>
			</g>
		</g>
		<g>
			<g>
				<path id="b2FovDbfcz" class="st3" d="M15.7,347.7l-11.2,10l0-20l0-20l11.2,10l11.2,10L15.7,347.7z"/>
			</g>
		</g>
		<g>
			<g>
				<path id="bnwOt3Oae" class="st3" d="M16,33.9L4.9,44L4.7,24L4.6,4l11.3,9.9l11.3,9.9L16,33.9z"/>
			</g>
		</g>
	</g>
</g>
</svg>
