<?xml version="1.0" encoding="utf-8"?>
<!-- Generator: Adobe Illustrator 23.0.1, SVG Export Plug-In . SVG Version: 6.00 Build 0)  -->
<svg version="1.1" id="Layer_1" xmlns="http://www.w3.org/2000/svg" xmlns:xlink="http://www.w3.org/1999/xlink" x="0px" y="0px"
	 viewBox="0 0 220 330" style="enable-background:new 0 0 220 330;" xml:space="preserve">
<style type="text/css">
	.st0{opacity:0;}
	.st1{fill:#060606;}
</style>
<g>
	<g>
		<g>
			<g>
				<g>
					<g id="dRYh7CUn7">
						<g class="st0">
							<path d="M172.1,262.2C152.8,303.9,116,318,61.7,304.5C-19.8,284.1,1.5,23.6,79.4,11.9c51.9-7.8,82.1,13.3,90.5,63.4"/>
						</g>
						<g>
							<path d="M98.5,314.5c-11.6,0-24.3-1.7-38.1-5.1C15.1,298,2.4,223.4,5.3,162.9c1.8-37.7,9.3-74,21-102
								C39.8,28.7,57.9,10.1,78.6,7c27.2-4.1,49.1-0.4,65.2,10.8c16.1,11.3,26.6,30.4,31,56.7l-9.9,1.7
								C157,28.8,129.3,9.4,80.1,16.8c-11.9,1.8-29.3,11.6-44.6,48c-11.3,27-18.5,62-20.3,98.6c-2.9,61.2,10.7,127,47.6,136.2
								c52.1,13,86.4,0.1,104.7-39.5l9.1,4.2C161.2,297.7,135,314.5,98.5,314.5z"/>
						</g>
					</g>
				</g>
			</g>
		</g>
		<g>
			<g>
				<g>
					<g id="cesWjvK6U">
						<g class="st0">
							<line x1="57" y1="303" x2="57" y2="24.5"/>
						</g>
						<g>
							<rect x="52" y="24.5" width="10" height="278.5"/>
						</g>
					</g>
				</g>
			</g>
		</g>
		<g>
			<g>
				<g>
					<g id="a3Bc8o4qhI">
						<g class="st0">
							<polyline points="172.9,323.7 172.9,279.3 172.9,215.7 							"/>
						</g>
						<g>
							<rect x="167.9" y="215.7" width="10" height="108.1"/>
						</g>
					</g>
				</g>
			</g>
		</g>
		<g>
			<g>
				<path id="a49YDCrFza" class="st1" d="M181.9,313.7l10,11.2h-20h-20l10-11.2l10-11.2L181.9,313.7z"/>
			</g>
		</g>
		<g>
			<g>
				<g>
					<g id="auTYLelQu">
						<g class="st0">
							<line x1="217" y1="211.3" x2="127" y2="211.3"/>
						</g>
						<g>
							<rect x="127" y="206.3" width="90" height="10"/>
						</g>
					</g>
				</g>
			</g>
		</g>
	</g>
</g>
</svg>
