<?xml version="1.0" encoding="utf-8"?>
<!-- Generator: Adobe Illustrator 23.0.1, SVG Export Plug-In . SVG Version: 6.00 Build 0)  -->
<svg version="1.1" id="Layer_1" xmlns="http://www.w3.org/2000/svg" xmlns:xlink="http://www.w3.org/1999/xlink" x="0px" y="0px"
	 viewBox="0 0 195 330" style="enable-background:new 0 0 195 330;" xml:space="preserve">
<style type="text/css">
	.st0{opacity:0;}
	.st1{fill:#060606;}
</style>
<g>
	<g>
		<g>
			<g>
				<g>
					<g id="a4Fxy879q">
						<g class="st0">
							<line x1="23.1" y1="328.9" x2="23.1" y2="1.5"/>
						</g>
						<g>
							<rect x="18.1" y="1.5" width="10" height="327.3"/>
						</g>
					</g>
				</g>
			</g>
		</g>
		<g>
			<g>
				<g>
					<g id="e1bMs4H39N">
						<g class="st0">
							<line x1="173.6" y1="328.9" x2="173.6" y2="1.5"/>
						</g>
						<g>
							<rect x="168.6" y="1.5" width="10" height="327.3"/>
						</g>
					</g>
				</g>
			</g>
		</g>
		<g>
			<g>
				<g>
					<g id="anzXIjSvR">
						<g class="st0">
							<line x1="178.3" y1="134.4" x2="18.3" y2="134.4"/>
						</g>
						<g>
							<rect x="18.3" y="129.4" width="160" height="10"/>
						</g>
					</g>
				</g>
			</g>
		</g>
		<g>
			<g>
				<g>
					<g id="e33Tv8rvSb">
						<g class="st0">
							<line x1="178.3" y1="175.4" x2="18.3" y2="175.4"/>
						</g>
						<g>
							<rect x="18.3" y="170.4" width="160" height="10"/>
						</g>
					</g>
				</g>
			</g>
		</g>
		<g>
			<g>
				<path id="b2iATdDpKo" class="st1" d="M32.6,317.9l10,11.2h-20h-20l10-11.2l10-11.2L32.6,317.9z"/>
			</g>
		</g>
		<g>
			<g>
				<path id="afouFopWq" class="st1" d="M183.4,317.9l10,11.2h-20h-20l10-11.2l10-11.2L183.4,317.9z"/>
			</g>
		</g>
		<g>
			<g>
				<path id="hCIJ0VC6e" class="st1" d="M32.6,12.6l10-11.2h-20h-20l10,11.2l10,11.2L32.6,12.6z"/>
			</g>
		</g>
		<g>
			<g>
				<path id="c11Iocc3Ie" class="st1" d="M184,12.1l10-11.2h-20h-20l10,11.2l10,11.2L184,12.1z"/>
			</g>
		</g>
	</g>
</g>
</svg>
