<?xml version="1.0" encoding="utf-8"?>
<!-- Generator: Adobe Illustrator 23.0.1, SVG Export Plug-In . SVG Version: 6.00 Build 0)  -->
<svg version="1.1" id="Layer_1" xmlns="http://www.w3.org/2000/svg" xmlns:xlink="http://www.w3.org/1999/xlink" x="0px" y="0px"
	 viewBox="0 0 85 330" style="enable-background:new 0 0 85 330;" xml:space="preserve">
<style type="text/css">
	.st0{fill:#060606;}
	.st1{opacity:0;}
</style>
<g>
	<g>
		<g>
			<g>
				<path id="dG3WdkrJQ" class="st0" d="M73.6,314.5l10,11.2h-20h-20l10-11.2l10-11.2L73.6,314.5z"/>
			</g>
		</g>
		<g>
			<g>
				<path id="bi0TqDGP5" class="st0" d="M32.6,314.7l10,11.2h-20h-20l10-11.2l10-11.2L32.6,314.7z"/>
			</g>
		</g>
		<g>
			<g>
				<path id="c15fnUCbd5" class="st0" d="M72.9,15.9l10-11.2h-20h-20l10,11.2l10,11.2L72.9,15.9z"/>
			</g>
		</g>
		<g>
			<g>
				<path id="c2bLYNE1xw" class="st0" d="M31.9,15.7l10-11.2h-20h-20l10,11.2l10,11.2L31.9,15.7z"/>
			</g>
		</g>
		<g>
			<g>
				<g>
					<path id="f336nZMZiG" class="st0" d="M0,0"/>
				</g>
			</g>
		</g>
		<g>
			<g>
				<g>
					<g id="fZZwQVCI3">
						<g class="st1">
							<line x1="22.5" y1="309.4" x2="22.5" y2="20.6"/>
						</g>
						<g>
							<rect x="17.5" y="20.6" width="10" height="288.8"/>
						</g>
					</g>
				</g>
			</g>
		</g>
		<g>
			<g>
				<g>
					<g id="djv0LYApE">
						<g class="st1">
							<line x1="63.8" y1="309.4" x2="63.8" y2="20.6"/>
						</g>
						<g>
							<rect x="58.8" y="20.6" width="10" height="288.8"/>
						</g>
					</g>
				</g>
			</g>
		</g>
	</g>
</g>
</svg>
