<?xml version="1.0" encoding="utf-8"?>
<!-- Generator: Adobe Illustrator 23.0.1, SVG Export Plug-In . SVG Version: 6.00 Build 0)  -->
<svg version="1.1" id="Layer_1" xmlns="http://www.w3.org/2000/svg" xmlns:xlink="http://www.w3.org/1999/xlink" x="0px" y="0px"
	 viewBox="0 0 175 310" style="enable-background:new 0 0 175 310;" xml:space="preserve">
<style type="text/css">
	.st0{opacity:0;}
</style>
<g>
	<g>
		<g>
			<g>
				<g>
					<g id="h57h2TTB">
						<g class="st0">
							<line x1="172.2" y1="10.3" x2="12.2" y2="10.3"/>
						</g>
						<g>
							<rect x="12.2" y="5.3" width="160" height="10"/>
						</g>
					</g>
				</g>
			</g>
		</g>
		<g>
			<g>
				<g>
					<g id="b3KAYaPJvO">
						<g class="st0">
							<path d="M11.3,241.4c-6.9,36.4,8.9,56.2,47.4,59.4c38.5,3.2,56.8-20.8,54.8-72.2V12.1"/>
						</g>
						<g>
							<path d="M65.3,306.1c-2.3,0-4.6-0.1-7-0.3c-21-1.8-36.1-8.4-44.7-19.9c-8.4-11-10.8-26.3-7.1-45.5l9.8,1.9
								c-3.1,16.3-1.3,28.9,5.3,37.6c6.9,9.1,19.5,14.4,37.6,15.9c15.1,1.3,26.4-1.8,34.5-9.5c10.9-10.4,16-29.8,14.9-57.5l0-0.2
								V12.1h10v216.5c1.1,30.6-4.9,52.5-18,65C91.7,301.9,79.9,306.1,65.3,306.1z"/>
						</g>
					</g>
				</g>
			</g>
		</g>
		<g>
			<g>
				<g>
					<g id="c1V4C70e1h">
						<g class="st0">
							<line x1="81.7" y1="297.1" x2="81.7" y2="10.9"/>
						</g>
						<g>
							<rect x="76.7" y="11" width="10" height="286.2"/>
						</g>
					</g>
				</g>
			</g>
		</g>
		<g>
			<g>
				<path id="b1Ci0jQuZV" d="M173,42.4L143,5.2h30V42.4z"/>
			</g>
		</g>
		<g>
			<g>
				<path id="d2dZwrRP3D" d="M12.2,44.4l30-37.2h-30V44.4z"/>
			</g>
		</g>
	</g>
</g>
</svg>
