<?xml version="1.0" encoding="utf-8"?>
<!-- Generator: Adobe Illustrator 23.0.1, SVG Export Plug-In . SVG Version: 6.00 Build 0)  -->
<svg version="1.1" id="Layer_1" xmlns="http://www.w3.org/2000/svg" xmlns:xlink="http://www.w3.org/1999/xlink" x="0px" y="0px"
	 viewBox="0 0 195 330" style="enable-background:new 0 0 195 330;" xml:space="preserve">
<style type="text/css">
	.st0{fill:#060606;}
	.st1{opacity:0;}
	.st2{fill:none;stroke:#000000;stroke-width:10;}
</style>
<g>
	<g>
		<g>
			<g>
				<g id="b1QOyQ5l8P">
					<path class="st0" d="M33.9,316.3l10,11.2h-20h-20l10-11.2l10-11.2L33.9,316.3z"/>
				</g>
			</g>
		</g>
		<g>
			<g>
				<g>
					<g id="fbbiDEJc8">
						<g class="st1">
							<line x1="24.2" y1="311.1" x2="24.2" y2="22.4"/>
						</g>
						<g>
							<rect x="19.2" y="22.4" width="10" height="288.7"/>
						</g>
					</g>
				</g>
			</g>
		</g>
		<g>
			<g>
				<g id="b3E1DRwmud">
					<path class="st0" d="M33.9,18.1l10-11.2h-20h-20l10,11.2l10,11.2L33.9,18.1z"/>
				</g>
			</g>
		</g>
		<g>
			<g>
				<g>
					<g id="e1aEc8SzJW">
						<g class="st1">
							<line x1="48.8" y1="319.7" x2="48.8" y2="10.3"/>
						</g>
						<g>
							<rect x="43.8" y="10.3" width="10" height="309.4"/>
						</g>
					</g>
				</g>
			</g>
		</g>
		<g>
			<g>
				<g>
					<g id="fFHEg1oq">
						<g class="st1">
							<path d="M0,0"/>
						</g>
						<g>
							<path class="st2" d="M0,0"/>
						</g>
					</g>
				</g>
			</g>
		</g>
		<g>
			<g>
				<g>
					<g id="b66aHA7EsX">
						<g class="st1">
							<path d="M0,0"/>
						</g>
						<g>
							<path class="st2" d="M0,0"/>
						</g>
					</g>
				</g>
			</g>
		</g>
		<g>
			<g>
				<g>
					<g id="d2Ix2ZiPIC">
						<g class="st1">
							<polyline points="190.9,314.5 50.8,171.3 184.8,11.3 							"/>
						</g>
						<g>
							<polygon points="187.3,318 44,171.6 181,8.1 188.6,14.5 57.5,171.1 194.5,311 							"/>
						</g>
					</g>
				</g>
			</g>
		</g>
	</g>
</g>
</svg>
