<?xml version="1.0" encoding="utf-8"?>
<!-- Generator: Adobe Illustrator 23.0.1, SVG Export Plug-In . SVG Version: 6.00 Build 0)  -->
<svg version="1.1" id="Layer_1" xmlns="http://www.w3.org/2000/svg" xmlns:xlink="http://www.w3.org/1999/xlink" x="0px" y="0px"
	 viewBox="0 0 210 320" style="enable-background:new 0 0 210 320;" xml:space="preserve">
<style type="text/css">
	.st0{opacity:0;}
	.st1{fill:#060606;}
</style>
<g>
	<g>
		<g>
			<g>
				<g>
					<g id="a4DTIfDnvk">
						<g class="st0">
							<polyline points="187.9,312.5 187.9,18.6 108.7,147.5 23.3,18.6 23.3,312.5 							"/>
						</g>
						<g>
							<polygon points="192.9,312.5 182.9,312.5 182.9,36.3 108.8,156.8 28.3,35.2 28.3,312.5 18.3,312.5 18.3,2 108.5,138.2 
								192.9,0.9 							"/>
						</g>
					</g>
				</g>
			</g>
		</g>
		<g>
			<g>
				<g>
					<g id="h6owYluXh8">
						<g class="st0">
							<line x1="47.7" y1="313.6" x2="47.7" y2="54.7"/>
						</g>
						<g>
							<rect x="42.7" y="54.7" width="10" height="258.9"/>
						</g>
					</g>
				</g>
			</g>
		</g>
		<g>
			<g>
				<path id="b31mKsrmLa" class="st1" d="M33.3,306.5l10,11.2h-20h-20l10-11.2l10-11.2L33.3,306.5z"/>
			</g>
		</g>
		<g>
			<g>
				<path id="c1Oz9KexNG" class="st1" d="M197.9,306.5l10,11.2h-20h-20l10-11.2l10-11.2L197.9,306.5z"/>
			</g>
		</g>
	</g>
</g>
</svg>
