<?xml version="1.0" encoding="utf-8"?>
<!-- Generator: Adobe Illustrator 23.0.1, SVG Export Plug-In . SVG Version: 6.00 Build 0)  -->
<svg version="1.1" id="Layer_1" xmlns="http://www.w3.org/2000/svg" xmlns:xlink="http://www.w3.org/1999/xlink" x="0px" y="0px"
	 viewBox="0 0 200 300" style="enable-background:new 0 0 200 300;" xml:space="preserve">
<style type="text/css">
	.st0{fill:#060606;}
	.st1{opacity:0;}
</style>
<g>
	<g>
		<g>
			<g>
				<path id="a1gKjH5gx0" class="st0" d="M31.8,287.8l10,11.2h-20h-20l10-11.2l10-11.2L31.8,287.8z"/>
			</g>
		</g>
		<g>
			<g>
				<path id="h5wJalQJO" class="st0" d="M188.7,12.8l10-11.2h-20h-20l10,11.2l10,11.2L188.7,12.8z"/>
			</g>
		</g>
		<g>
			<g>
				<g>
					<g id="a395UX1hEu">
						<g class="st1">
							<line x1="21.5" y1="291.6" x2="21.5" y2="7.6"/>
						</g>
						<g>
							<rect x="16.5" y="7.6" width="10" height="284"/>
						</g>
					</g>
				</g>
			</g>
		</g>
		<g>
			<g>
				<g>
					<g id="aSeFmcYNx">
						<g class="st1">
							<line x1="179" y1="292.6" x2="179" y2="8.6"/>
						</g>
						<g>
							<rect x="174" y="8.6" width="10" height="283.9"/>
						</g>
					</g>
				</g>
			</g>
		</g>
		<g>
			<g>
				<g>
					<g id="ddWbwAwVN">
						<g class="st1">
							<line x1="47.8" y1="291.6" x2="47.8" y2="7.6"/>
						</g>
						<g>
							<rect x="42.8" y="7.6" width="10" height="284"/>
						</g>
					</g>
				</g>
			</g>
		</g>
		<g>
			<g>
				<g>
					<g id="bdzG336xx">
						<g class="st1">
							<line x1="178.6" y1="290.6" x2="48.7" y2="9.8"/>
						</g>
						<g>
							<rect x="108.6" y="-4.5" transform="matrix(0.9077 -0.4196 0.4196 0.9077 -52.5442 61.5567)" width="10" height="309.4"/>
						</g>
					</g>
				</g>
			</g>
		</g>
	</g>
</g>
</svg>
