<?xml version="1.0" encoding="utf-8"?>
<!-- Generator: Adobe Illustrator 23.0.1, SVG Export Plug-In . SVG Version: 6.00 Build 0)  -->
<svg version="1.1" id="Layer_1" xmlns="http://www.w3.org/2000/svg" xmlns:xlink="http://www.w3.org/1999/xlink" x="0px" y="0px"
	 viewBox="0 0 190 320" style="enable-background:new 0 0 190 320;" xml:space="preserve">
<style type="text/css">
	.st0{opacity:0;}
	.st1{fill:#050505;}
	.st2{fill:#060606;}
</style>
<g>
	<g>
		<g>
			<g>
				<g>
					<g id="a19ZDzvYTT">
						<g class="st0">
							<ellipse cx="96.7" cy="158.1" rx="84.9" ry="148.1"/>
						</g>
						<g>
							<path d="M96.7,311.3c-24.5,0-47.4-16.3-64.3-45.9C15.9,236.6,6.9,198.6,6.9,158.1c0-40.4,9.1-78.5,25.5-107.2
								C49.4,21.3,72.2,5,96.7,5c24.5,0,47.4,16.3,64.3,45.9c16.5,28.7,25.5,66.8,25.5,107.2c0,40.4-9.1,78.5-25.5,107.2
								C144.1,295,121.3,311.3,96.7,311.3z M96.7,15C76,15,56.2,29.5,41.1,55.9c-15.6,27.2-24.2,63.6-24.2,102.3s8.6,75,24.2,102.3
								c15.1,26.4,34.9,40.9,55.7,40.9c20.8,0,40.5-14.5,55.7-40.9c15.6-27.2,24.2-63.6,24.2-102.3s-8.6-75-24.2-102.3
								C137.3,29.5,117.5,15,96.7,15z"/>
						</g>
					</g>
				</g>
			</g>
		</g>
		<g>
			<g>
				<g>
					<g id="d3CVdKSpQQ">
						<g class="st0">
							<line x1="46.9" y1="276.8" x2="46.9" y2="40"/>
						</g>
						<g>
							<rect x="41.9" y="40" class="st1" width="10" height="236.8"/>
						</g>
					</g>
				</g>
			</g>
		</g>
		<g>
			<g>
				<path id="a5kfaA8LeN" class="st2" d="M110.9,163.8l10,11.2h-20h-20l10-11.2l10-11.2L110.9,163.8z"/>
			</g>
		</g>
	</g>
</g>
</svg>
