<?xml version="1.0" encoding="utf-8"?>
<!-- Generator: Adobe Illustrator 23.0.1, SVG Export Plug-In . SVG Version: 6.00 Build 0)  -->
<svg version="1.1" id="Layer_1" xmlns="http://www.w3.org/2000/svg" xmlns:xlink="http://www.w3.org/1999/xlink" x="0px" y="0px"
	 viewBox="0 0 180 350" style="enable-background:new 0 0 180 350;" xml:space="preserve">
<style type="text/css">
	.st0{opacity:0;}
	.st1{fill:#060606;}
</style>
<g>
	<g>
		<g>
			<g>
				<g>
					<g id="c2spiEQmw8">
						<path d="M0,0"/>
					</g>
				</g>
			</g>
		</g>
		<g>
			<g>
				<g>
					<g id="b2zRBvWPRw">
						<path d="M0,0"/>
					</g>
				</g>
			</g>
		</g>
		<g>
			<g>
				<g>
					<g id="bcljwHMur">
						<g class="st0">
							<path d="M49.8,171h86.4c24-0.5,36-25.7,36-75.4c0-49.7-12-74.9-36-75.4H49.8"/>
						</g>
						<g>
							<path d="M136.2,176H49.8v-10h86.3c10-0.2,17.4-5.6,22.5-16.4c5.6-11.8,8.5-30,8.5-54c0-24-2.9-42.2-8.5-54
								c-5.2-10.8-12.5-16.2-22.5-16.4H49.8v-10l86.5,0c27.1,0.6,40.9,27.7,40.9,80.4C177.1,148.4,163.4,175.4,136.2,176L136.2,176z
								"/>
						</g>
					</g>
				</g>
			</g>
		</g>
		<g>
			<g>
				<g id="c2WuG5uuS3">
					<path class="st1" d="M1663.4,590.2L1652,600l0.3-20l0.3-20l11.1,10.2l11.1,10.2L1663.4,590.2z"/>
				</g>
			</g>
		</g>
		<g>
			<g>
				<g>
					<g id="a2n1XstONc">
						<g class="st0">
							<line x1="22.4" y1="343.2" x2="22.4" y2="15.8"/>
						</g>
						<g>
							<rect x="17.4" y="15.8" width="10" height="327.3"/>
						</g>
					</g>
				</g>
			</g>
		</g>
		<g>
			<g>
				<g>
					<g id="b43BSvEpHp">
						<g class="st0">
							<line x1="54.4" y1="343.2" x2="54.4" y2="15.8"/>
						</g>
						<g>
							<rect x="49.4" y="15.8" width="10" height="327.3"/>
						</g>
					</g>
				</g>
			</g>
		</g>
		<g>
			<g>
				<g id="eiDCFGSeq">
					<path class="st1" d="M32,337.5l10,11.2H22H2l10-11.2l10-11.2L32,337.5z"/>
				</g>
			</g>
		</g>
		<g>
			<g>
				<g id="a2yTDiAQH7">
					<path class="st1" d="M13.6,18.4L3.6,7.1h20h20l-10,11.2l-10,11.2L13.6,18.4z"/>
				</g>
			</g>
		</g>
	</g>
</g>
</svg>
