<?xml version="1.0" encoding="utf-8"?>
<!-- Generator: Adobe Illustrator 23.0.1, SVG Export Plug-In . SVG Version: 6.00 Build 0)  -->
<svg version="1.1" id="Layer_1" xmlns="http://www.w3.org/2000/svg" xmlns:xlink="http://www.w3.org/1999/xlink" x="0px" y="0px"
	 viewBox="0 0 210 320" style="enable-background:new 0 0 210 320;" xml:space="preserve">
<style type="text/css">
	.st0{opacity:0;}
	.st1{fill:#050505;}
	.st2{fill:#060606;}
</style>
<g>
	<g>
		<g>
			<g>
				<g>
					<g id="aIdazTXbf">
						<g class="st0">
							<ellipse cx="93.7" cy="155.1" rx="84.9" ry="148.1"/>
						</g>
						<g>
							<path d="M93.7,308.3c-24.5,0-47.4-16.3-64.3-45.9C12.9,233.6,3.9,195.6,3.9,155.1c0-40.4,9.1-78.5,25.5-107.2
								C46.4,18.3,69.2,2,93.7,2c24.5,0,47.4,16.3,64.3,45.9c16.5,28.7,25.5,66.8,25.5,107.2c0,40.4-9.1,78.5-25.5,107.2
								C141.1,292,118.3,308.3,93.7,308.3z M93.7,12C73,12,53.2,26.5,38.1,52.9c-15.6,27.2-24.2,63.6-24.2,102.3s8.6,75,24.2,102.3
								c15.1,26.4,34.9,40.9,55.7,40.9c20.8,0,40.6-14.5,55.7-40.9c15.6-27.2,24.2-63.6,24.2-102.3s-8.6-75-24.2-102.3
								C134.3,26.5,114.5,12,93.7,12z"/>
						</g>
					</g>
				</g>
			</g>
		</g>
		<g>
			<g>
				<g>
					<g id="a4WGvTaYZl">
						<g class="st0">
							<line x1="43.9" y1="273.8" x2="43.9" y2="37"/>
						</g>
						<g>
							<rect x="38.9" y="37" class="st1" width="10" height="236.8"/>
						</g>
					</g>
				</g>
			</g>
		</g>
		<g>
			<g>
				<path id="f1CYf56LWB" class="st2" d="M194.1,289.5l15-0.1l-13.2,15l-13.2,15l-1.8-14.9l-1.8-14.9L194.1,289.5z"/>
			</g>
		</g>
		<g>
			<g>
				<g>
					<g id="e2sJEWNZJN">
						<g class="st0">
							<line x1="188.8" y1="298.6" x2="120.1" y2="235"/>
						</g>
						<g>
							
								<rect x="149.5" y="220" transform="matrix(0.6795 -0.7337 0.7337 0.6795 -146.2583 198.8549)" class="st1" width="10" height="93.7"/>
						</g>
					</g>
				</g>
			</g>
		</g>
	</g>
</g>
</svg>
