<?xml version="1.0" encoding="utf-8"?>
<!-- Generator: Adobe Illustrator 23.0.1, SVG Export Plug-In . SVG Version: 6.00 Build 0)  -->
<svg version="1.1" id="Layer_1" xmlns="http://www.w3.org/2000/svg" xmlns:xlink="http://www.w3.org/1999/xlink" x="0px" y="0px"
	 viewBox="0 0 170 260" style="enable-background:new 0 0 170 260;" xml:space="preserve">
<style type="text/css">
	.st0{opacity:0;}
	.st1{fill:#050505;}
	.st2{fill:#060606;}
</style>
<g>
	<g>
		<g>
			<g>
				<g>
					<g id="amdmGi78l">
						<g class="st0">
							<path d="M25.3,213.7c6.8,46.8,61,40.3,89.2,39.1c28.1-1.3,40.1-29.8,36.7-73.2c-3.4-43.5-48.2-56.9-90-62.4
								c-41.8-5.5-50.3-104.1,13.6-110c42.6-4,66.8,14.8,72.5,56.1"/>
						</g>
						<g>
							<path class="st1" d="M88.5,258.8c-10.4,0-21.5-0.8-31.6-3.6c-21.1-6-33.4-19.7-36.5-40.7l9.9-1.4c2.5,17,12.1,27.7,29.3,32.5
								c15.5,4.4,33.8,3.4,48.4,2.6c2.2-0.1,4.3-0.2,6.2-0.3c8.3-0.4,15.2-3.5,20.3-9.4c9.7-11,13.7-31.2,11.6-58.5
								c-2.5-32.1-29.7-50.5-85.6-57.8c-24.8-3.3-37.7-33.1-37.2-59.4c0.5-25.8,14.1-57.1,51-60.5c22.5-2.1,40.6,2,53.6,12.1
								c13.1,10.1,21.3,26.4,24.3,48.3l-9.9,1.4C137,25.4,115.1,8.4,75.3,12.1c-30.3,2.8-41.5,28-41.9,50.7
								c-0.4,22.4,10.1,46.9,28.5,49.3c26.3,3.4,46.3,9.2,61.2,17.5c20.3,11.4,31.5,28,33.1,49.4c2.4,30-2.5,52.8-14.1,65.9
								c-7,7.9-16.2,12.2-27.3,12.7c-1.9,0.1-4,0.2-6.2,0.3C102.6,258.4,95.7,258.8,88.5,258.8z"/>
						</g>
					</g>
				</g>
			</g>
		</g>
		<g>
			<g>
				<g>
					<g id="d625kC1EkX">
						<g class="st0">
							<line x1="61.6" y1="112.7" x2="61.6" y2="12.8"/>
						</g>
						<g>
							<rect x="56.6" y="12.8" class="st1" width="10" height="99.9"/>
						</g>
					</g>
				</g>
			</g>
		</g>
		<g>
			<g>
				<path id="ayEa3avC" class="st2" d="M15.2,215.4l-13.4-6.8l18.6-7.2l18.7-7.2l-5.3,14.1l-5.3,14.1L15.2,215.4z"/>
			</g>
		</g>
		<g>
			<g>
				<path id="c1OusZIvph" class="st2" d="M157.2,58.6l12.5,8.3l-19.4,5L131,77l6.9-13.4l6.9-13.4L157.2,58.6z"/>
			</g>
		</g>
		<g>
			<g>
				<g>
					<g id="c2adAXtNMa">
						<g class="st0">
							<line x1="121.8" y1="249.6" x2="121.8" y2="134.7"/>
						</g>
						<g>
							<rect x="116.8" y="134.7" class="st1" width="10" height="114.8"/>
						</g>
					</g>
				</g>
			</g>
		</g>
	</g>
</g>
</svg>
