<?xml version="1.0" encoding="utf-8"?>
<!-- Generator: Adobe Illustrator 23.0.1, SVG Export Plug-In . SVG Version: 6.00 Build 0)  -->
<svg version="1.1" id="Layer_1" xmlns="http://www.w3.org/2000/svg" xmlns:xlink="http://www.w3.org/1999/xlink" x="0px" y="0px"
	 viewBox="0 0 160 290" style="enable-background:new 0 0 160 290;" xml:space="preserve">
<style type="text/css">
	.st0{fill:#060606;}
	.st1{opacity:0;}
	.st2{fill:#050505;}
</style>
<g>
	<g>
		<g>
			<g>
				<path id="ae7oKeyTG" class="st0" d="M72.8,139.7l-10-11.2l20,0l20,0l-10,11.2l-10,11.2L72.8,139.7z"/>
			</g>
		</g>
		<g>
			<g>
				<g>
					<g id="aaju9JuAy">
						<g class="st1">
							<path d="M7.4,3.2v196.1C7.9,253.7,32.1,281,80,280.9c47.9,0,72.1-27.3,72.6-81.7V3.2"/>
						</g>
						<g>
							<path d="M80,285.9c-25.3,0-44.7-7.4-57.8-22.1C9.3,249.4,2.7,227.7,2.4,199.3V3.2h10v196.1c0.5,51.6,22.6,76.7,67.6,76.7
								c0,0,0,0,0,0c45,0,67.1-25.1,67.6-76.7V3.2h10v196.1c-0.3,28.4-6.9,50.1-19.8,64.6C124.8,278.5,105.3,285.9,80,285.9
								C80,285.9,80,285.9,80,285.9z"/>
						</g>
					</g>
				</g>
			</g>
		</g>
		<g>
			<g>
				<g>
					<g id="c5x31qBI0Z">
						<g class="st1">
							<line x1="35" y1="266.8" x2="35" y2="3.1"/>
						</g>
						<g>
							<rect x="30" y="3.1" class="st2" width="10" height="263.7"/>
						</g>
					</g>
				</g>
			</g>
		</g>
	</g>
</g>
</svg>
