<?xml version="1.0" encoding="utf-8"?>
<!-- Generator: Adobe Illustrator 23.0.1, SVG Export Plug-In . SVG Version: 6.00 Build 0)  -->
<svg version="1.1" id="Layer_1" xmlns="http://www.w3.org/2000/svg" xmlns:xlink="http://www.w3.org/1999/xlink" x="0px" y="0px"
	 viewBox="0 0 210 320" style="enable-background:new 0 0 210 320;" xml:space="preserve">
<style type="text/css">
	.st0{opacity:0;}
	.st1{fill:#060606;}
</style>
<g>
	<g>
		<g>
			<g>
				<g>
					<g id="bqcgMFKmE">
						<g class="st0">
							<polyline points="188.8,8.2 188.8,302.1 109.6,173.2 24.3,302.1 24.3,8.2 							"/>
						</g>
						<g>
							<polygon points="193.8,319.8 109.4,182.5 19.3,318.7 19.3,8.2 29.3,8.2 29.3,285.5 109.8,163.9 183.8,284.4 183.8,8.2 
								193.8,8.2 							"/>
						</g>
					</g>
				</g>
			</g>
		</g>
		<g>
			<g>
				<g>
					<g id="b37s7MMSyJ">
						<g class="st0">
							<line x1="46.9" y1="266.8" x2="46.9" y2="7.9"/>
						</g>
						<g>
							<rect x="41.9" y="7.9" width="10" height="258.9"/>
						</g>
					</g>
				</g>
			</g>
		</g>
		<g>
			<g>
				<path id="f7ONpNtuh" class="st1" d="M32.9,13.8l10-11.2h-20h-20l10,11.2l10,11.2L32.9,13.8z"/>
			</g>
		</g>
		<g>
			<g>
				<path id="e2meiyT0vd" class="st1" d="M198.8,15l10-11.2h-20h-20l10,11.2l10,11.2L198.8,15z"/>
			</g>
		</g>
	</g>
</g>
</svg>
