<?xml version="1.0" encoding="utf-8"?>
<!-- Generator: Adobe Illustrator 23.0.1, SVG Export Plug-In . SVG Version: 6.00 Build 0)  -->
<svg version="1.1" id="Layer_1" xmlns="http://www.w3.org/2000/svg" xmlns:xlink="http://www.w3.org/1999/xlink" x="0px" y="0px"
	 viewBox="0 0 175 305" style="enable-background:new 0 0 175 305;" xml:space="preserve">
<style type="text/css">
	.st0{fill:#060606;}
	.st1{opacity:0;}
	.st2{fill:#050505;}
</style>
<g>
	<g>
		<g>
			<g>
				<path id="c1mhbqiYTr" class="st0" d="M32.2,291.8l10,11.2h-20h-20l10-11.2l10-11.2L32.2,291.8z"/>
			</g>
		</g>
		<g>
			<g>
				<path id="a4SSuacuAV" class="st0" d="M160.7,14.2l10-11.2h-20h-20l10,11.2l10,11.2L160.7,14.2z"/>
			</g>
		</g>
		<g>
			<g>
				<g>
					<g id="c6Znl7BFn2">
						<g class="st1">
							<line x1="142" y1="303" x2="10.7" y2="3"/>
						</g>
						<g>
							
								<rect x="71.4" y="-10.7" transform="matrix(0.9162 -0.4008 0.4008 0.9162 -54.9225 43.4364)" class="st2" width="10" height="327.5"/>
						</g>
					</g>
				</g>
			</g>
		</g>
		<g>
			<g>
				<g>
					<g id="f6glgm5nK">
						<g class="st1">
							<line x1="168.4" y1="303" x2="37.1" y2="3"/>
						</g>
						<g>
							
								<rect x="97.7" y="-10.7" transform="matrix(0.9162 -0.4008 0.4008 0.9162 -52.7107 54.0099)" class="st2" width="10" height="327.5"/>
						</g>
					</g>
				</g>
			</g>
		</g>
		<g>
			<g>
				<g>
					<g id="a5dgQTRQZ">
						<g class="st1">
							<line x1="97.3" y1="138.6" x2="154.8" y2="7.4"/>
						</g>
						<g>
							
								<rect x="54.4" y="68" transform="matrix(0.4019 -0.9157 0.9157 0.4019 8.547 159.0851)" class="st2" width="143.2" height="10"/>
						</g>
					</g>
				</g>
			</g>
		</g>
		<g>
			<g>
				<g>
					<g id="hIwRPj5Us">
						<g class="st1">
							<line x1="19.7" y1="298" x2="81.2" y2="161"/>
						</g>
						<g>
							
								<rect x="-24.6" y="224.5" transform="matrix(0.4094 -0.9124 0.9124 0.4094 -179.5602 181.5978)" class="st2" width="150.2" height="10"/>
						</g>
					</g>
				</g>
			</g>
		</g>
	</g>
</g>
</svg>
