<?xml version="1.0" encoding="utf-8"?>
<!-- Generator: Adobe Illustrator 23.0.1, SVG Export Plug-In . SVG Version: 6.00 Build 0)  -->
<svg version="1.1" id="Layer_1" xmlns="http://www.w3.org/2000/svg" xmlns:xlink="http://www.w3.org/1999/xlink" x="0px" y="0px"
	 viewBox="0 0 165 331" style="enable-background:new 0 0 165 331;" xml:space="preserve">
<style type="text/css">
	.st0{opacity:0;}
	.st1{fill:#050505;}
</style>
<g>
	<g>
		<g>
			<g>
				<g>
					<g id="gofc1QpKs">
						<g class="st0">
							<line x1="163.1" y1="6" x2="3.1" y2="6"/>
						</g>
						<g>
							<rect x="3.1" y="1" width="160" height="10"/>
						</g>
					</g>
				</g>
			</g>
		</g>
		<g>
			<g>
				<g>
					<g id="a1KcNnG32i">
						<g class="st0">
							<line x1="161" y1="324.6" x2="1" y2="324.6"/>
						</g>
						<g>
							<rect x="1" y="319.6" width="160" height="10"/>
						</g>
					</g>
				</g>
			</g>
		</g>
		<g>
			<g>
				<path id="cxZ7jEffm" d="M160.8,291.7l-30,37.2h30V291.7z"/>
			</g>
		</g>
		<g>
			<g>
				<path id="cixwlCirM" d="M3.1,40.5l30-37.2h-30V40.5z"/>
			</g>
		</g>
		<g>
			<g>
				<g>
					<g id="abBj2dwjh">
						<g class="st0">
							<line x1="5.4" y1="321.7" x2="158.7" y2="8.2"/>
						</g>
						<g>
							
								<rect x="-92.5" y="159.9" transform="matrix(0.4393 -0.8984 0.8984 0.4393 -102.1625 166.1947)" class="st1" width="349" height="10"/>
						</g>
					</g>
				</g>
			</g>
		</g>
		<g>
			<g>
				<g>
					<g id="ahbVL0FSJ">
						<g class="st0">
							<line x1="104.4" y1="120.8" x2="104.4" y2="6"/>
						</g>
						<g>
							<rect x="99.4" y="6" class="st1" width="10" height="114.8"/>
						</g>
					</g>
				</g>
			</g>
		</g>
		<g>
			<g>
				<g>
					<g id="hxswAI7rc">
						<g class="st0">
							<line x1="58.2" y1="328" x2="58.2" y2="213.2"/>
						</g>
						<g>
							<rect x="53.2" y="213.2" class="st1" width="10" height="114.8"/>
						</g>
					</g>
				</g>
			</g>
		</g>
	</g>
</g>
</svg>
