<?xml version="1.0" encoding="utf-8"?>
<!-- Generator: Adobe Illustrator 23.0.1, SVG Export Plug-In . SVG Version: 6.00 Build 0)  -->
<svg version="1.1" id="Layer_1" xmlns="http://www.w3.org/2000/svg" xmlns:xlink="http://www.w3.org/1999/xlink" x="0px" y="0px"
	 viewBox="0 0 180 275" style="enable-background:new 0 0 180 275;" xml:space="preserve">
<style type="text/css">
	.st0{fill:#060606;}
	.st1{opacity:0;}
	.st2{fill:#050505;}
</style>
<g>
	<g>
		<g>
			<g>
				<g>
					<path id="bSlq01cPC" d="M0,0"/>
				</g>
			</g>
		</g>
		<g>
			<g>
				<g>
					<path id="a30X4btOy" d="M0,0"/>
				</g>
			</g>
		</g>
		<g>
			<g>
				<path id="a3xG2QZfKw" class="st0" d="M1663.4,590.2L1652,600l0.3-20l0.3-20l11.1,10.2l11.1,10.2L1663.4,590.2z"/>
			</g>
		</g>
		<g>
			<g>
				<path id="c4NoZlmCxQ" class="st0" d="M22.5,260.6l-14.4,4.2l8.6-18.1l8.6-18.1l5.8,13.8l5.8,13.9L22.5,260.6z"/>
			</g>
		</g>
		<g>
			<g>
				<g>
					<g id="a4hPUiSWir">
						<g class="st1">
							<polyline points="21.6,144.2 164.1,7.1 15.7,7.1 							"/>
						</g>
						<g>
							<polygon class="st2" points="25.1,147.8 18.2,140.6 151.7,12.1 15.7,12.1 15.7,2.1 176.6,2.1 							"/>
						</g>
					</g>
				</g>
			</g>
		</g>
		<g>
			<g>
				<g>
					<g id="a73f4UWt3">
						<g class="st1">
							<line x1="89.9" y1="80.2" x2="89.9" y2="4.4"/>
						</g>
						<g>
							<rect x="84.9" y="4.4" class="st2" width="10" height="75.8"/>
						</g>
					</g>
				</g>
			</g>
		</g>
		<g>
			<g>
				<g>
					<g id="dsy9BMQzz">
						<g class="st1">
							<path d="M22.5,144c99.8-44.7,148.5-29.8,145.9,44.5c-2.6,74.4-50.4,96.1-143.5,65.3"/>
						</g>
						<g>
							<path class="st2" d="M95,272.3c-20.2,0-44.1-4.6-71.8-13.7l3.1-9.5c51.1,16.9,88.3,17.7,110.5,2.3
								c16.5-11.5,25.4-32.7,26.5-62.9c1-28.1-5.7-47.2-19.8-56.7c-21.5-14.5-61.5-8.8-119,16.9l-4.1-9.1
								c61.7-27.6,103.8-32.9,128.7-16.1c17.2,11.6,25.3,33.6,24.2,65.4c-1.2,33.6-11.5,57.4-30.8,70.8
								C130.3,268.1,114.4,272.3,95,272.3z"/>
						</g>
					</g>
				</g>
			</g>
		</g>
	</g>
</g>
</svg>
