<?xml version="1.0" encoding="utf-8"?>
<!-- Generator: Adobe Illustrator 23.0.1, SVG Export Plug-In . SVG Version: 6.00 Build 0)  -->
<svg version="1.1" id="Layer_1" xmlns="http://www.w3.org/2000/svg" xmlns:xlink="http://www.w3.org/1999/xlink" x="0px" y="0px"
	 viewBox="0 0 175 305" style="enable-background:new 0 0 175 305;" xml:space="preserve">
<style type="text/css">
	.st0{opacity:0;}
	.st1{fill:#050505;}
	.st2{fill:#060606;}
</style>
<g>
	<g>
		<g>
			<g>
				<g>
					<g id="b2CDMXpTy2">
						<g class="st0">
							<polyline points="173.3,164 11.2,164 112.5,5.6 							"/>
						</g>
						<g>
							<polygon class="st1" points="173.3,169 2.1,169 108.3,2.9 116.7,8.3 20.4,159 173.3,159 							"/>
						</g>
					</g>
				</g>
			</g>
		</g>
		<g>
			<g>
				<g>
					<g id="aJwYmuPp6">
						<g class="st0">
							<line x1="114.6" y1="302.5" x2="113.6" y2="2.2"/>
						</g>
						<g>
							
								<rect x="109.1" y="2.2" transform="matrix(1 -3.196560e-03 3.196560e-03 1 -0.4865 0.3655)" class="st1" width="10" height="300.3"/>
						</g>
					</g>
				</g>
			</g>
		</g>
		<g>
			<g>
				<g>
					<g id="ab1QNKkbz">
						<g class="st0">
							<line x1="141.1" y1="302.3" x2="140.1" y2="2"/>
						</g>
						<g>
							
								<rect x="135.6" y="2" transform="matrix(1 -3.160775e-03 3.160775e-03 1 -0.4803 0.4452)" class="st1" width="10" height="300.3"/>
						</g>
					</g>
				</g>
			</g>
		</g>
		<g>
			<g>
				<path id="a70G1e13MP" class="st2" d="M133,292.3l-9.9,11.3l20-0.2l20-0.2L153,292l-10.1-11.1L133,292.3z"/>
			</g>
		</g>
	</g>
</g>
</svg>
