<?xml version="1.0" encoding="utf-8"?>
<!-- Generator: Adobe Illustrator 23.0.1, SVG Export Plug-In . SVG Version: 6.00 Build 0)  -->
<svg version="1.1" id="Layer_1" xmlns="http://www.w3.org/2000/svg" xmlns:xlink="http://www.w3.org/1999/xlink" x="0px" y="0px"
	 viewBox="0 0 172 275" style="enable-background:new 0 0 172 275;" xml:space="preserve">
<style type="text/css">
	.st0{fill:#060606;}
	.st1{opacity:0;}
	.st2{fill:#050505;}
</style>
<g>
	<g>
		<g>
			<g>
				<g>
					<path id="a4TDDyuHc" d="M0,0"/>
				</g>
			</g>
		</g>
		<g>
			<g>
				<g>
					<path id="a50xHcnliP" d="M0,0"/>
				</g>
			</g>
		</g>
		<g>
			<g>
				<path id="a30o0tQxiI" class="st0" d="M1663.4,590.2L1652,600l0.3-20l0.3-20l11.1,10.2l11.1,10.2L1663.4,590.2z"/>
			</g>
		</g>
		<g>
			<g>
				<path id="b2QQBmG7pw" class="st0" d="M15.5,261.9L1,266.1l8.6-18.1l8.6-18.1l5.8,13.9l5.8,13.8L15.5,261.9z"/>
			</g>
		</g>
		<g>
			<g>
				<g>
					<g id="dGclmYQr2">
						<g class="st1">
							<path d="M18.9,145.4c99.8-44.7,148.5-29.8,145.9,44.5c-2.6,74.4-50.4,96.1-143.5,65.3"/>
						</g>
						<g>
							<path class="st2" d="M91.4,273.7c-20.2,0-44.1-4.6-71.8-13.7l3.1-9.5c51.1,16.9,88.3,17.7,110.5,2.3
								c16.5-11.5,25.4-32.7,26.5-62.9c1-28.1-5.7-47.2-19.8-56.7c-21.5-14.5-61.5-8.8-119,16.9l-4.1-9.1
								c61.7-27.6,103.8-32.9,128.7-16.1c17.2,11.6,25.3,33.6,24.2,65.4c-1.2,33.6-11.5,57.4-30.8,70.8
								C126.8,269.4,110.9,273.7,91.4,273.7z"/>
						</g>
					</g>
				</g>
			</g>
		</g>
		<g>
			<g>
				<g>
					<g id="fnnmLbUlf">
						<g class="st1">
							<polyline points="17.3,150 17.3,8.2 153.6,7.2 							"/>
						</g>
						<g>
							<polygon class="st2" points="22.3,150 12.3,150 12.3,3.3 153.6,2.2 153.7,12.2 22.3,13.2 							"/>
						</g>
					</g>
				</g>
			</g>
		</g>
		<g>
			<g>
				<g>
					<g id="c2ueaP7cCc">
						<g class="st1">
							<line x1="153.6" y1="36.2" x2="20.3" y2="36.2"/>
						</g>
						<g>
							<rect x="20.3" y="31.2" class="st2" width="133.3" height="10"/>
						</g>
					</g>
				</g>
			</g>
		</g>
	</g>
</g>
</svg>
