<?xml version="1.0" encoding="utf-8"?>
<!-- Generator: Adobe Illustrator 23.0.1, SVG Export Plug-In . SVG Version: 6.00 Build 0)  -->
<svg version="1.1" id="Layer_1" xmlns="http://www.w3.org/2000/svg" xmlns:xlink="http://www.w3.org/1999/xlink" x="0px" y="0px"
	 viewBox="0 0 140 231" style="enable-background:new 0 0 140 231;" xml:space="preserve">
<style type="text/css">
	.st0{fill:#060606;}
	.st1{opacity:0;}
	.st2{fill:#050505;}
</style>
<g>
	<g>
		<g>
			<g>
				<g>
					<path id="aL3wlhb4" d="M0,0"/>
				</g>
			</g>
		</g>
		<g>
			<g>
				<g>
					<path id="a6PYekCU9I" d="M0,0"/>
				</g>
			</g>
		</g>
		<g>
			<g>
				<path id="cmbq3VA2t" class="st0" d="M1663.4,590.2L1652,600l0.3-20l0.3-20l11.1,10.2l11.1,10.2L1663.4,590.2z"/>
			</g>
		</g>
		<g>
			<g>
				<g>
					<g id="b2eULZcYQ0">
						<g class="st1">
							<path d="M132.3,162.6c0,34.5-27,62.6-60.3,62.6s-60.3-28-60.3-62.6s27-62.6,60.3-62.6S132.3,128.1,132.3,162.6z"/>
						</g>
						<g>
							<path class="st2" d="M72,230.2c-36,0-65.3-30.3-65.3-67.6C6.7,125.4,36,95.1,72,95.1c36,0,65.3,30.3,65.3,67.6
								C137.3,199.9,108,230.2,72,230.2z M72,105.1c-30.5,0-55.3,25.8-55.3,57.6c0,31.8,24.8,57.6,55.3,57.6s55.3-25.8,55.3-57.6
								C127.3,130.9,102.5,105.1,72,105.1z"/>
						</g>
					</g>
				</g>
			</g>
		</g>
		<g>
			<g>
				<g>
					<g id="a2GLfePMP9">
						<g class="st1">
							<path d="M18.2,191.5C0.4,129.9,5.2,78.6,32.7,37.6c27.4-40.9,56.5-40.9,87.2,0"/>
						</g>
						<g>
							<path class="st2" d="M13.4,192.9C-4.8,130,0.3,76.9,28.5,34.8C42.9,13.4,58.2,2.4,74.1,2c16.4-0.4,33.2,10.6,49.8,32.7l-8,6
								c-14.5-19.4-28.5-29-41.5-28.7c-12.5,0.3-25.1,9.9-37.6,28.5C10.3,79.9,5.7,130.2,23,190.1L13.4,192.9z"/>
						</g>
					</g>
				</g>
			</g>
		</g>
		<g>
			<g>
				<path id="c9jIhQUvt" class="st0" d="M53.9,163.3l-10,11.2l20,0l20,0l-10-11.2l-10-11.2L53.9,163.3z"/>
			</g>
		</g>
		<g>
			<g>
				<g>
					<g id="g5jnAXHHAV">
						<g class="st1">
							<line x1="104.2" y1="212.7" x2="104.2" y2="110.6"/>
						</g>
						<g>
							<rect x="99.2" y="110.6" class="st2" width="10" height="102.1"/>
						</g>
					</g>
				</g>
			</g>
		</g>
	</g>
</g>
</svg>
