<?xml version="1.0" encoding="utf-8"?>
<!-- Generator: Adobe Illustrator 23.0.1, SVG Export Plug-In . SVG Version: 6.00 Build 0)  -->
<svg version="1.1" id="Layer_1" xmlns="http://www.w3.org/2000/svg" xmlns:xlink="http://www.w3.org/1999/xlink" x="0px" y="0px"
	 viewBox="0 0 136 265" style="enable-background:new 0 0 136 265;" xml:space="preserve">
<style type="text/css">
	.st0{fill:#060606;}
	.st1{opacity:0;}
	.st2{fill:#050505;}
</style>
<g>
	<g>
		<g>
			<g>
				<g>
					<path id="a24DvR7fpE" d="M0,0"/>
				</g>
			</g>
		</g>
		<g>
			<g>
				<g>
					<path id="a83zntHHqy" d="M0,0"/>
				</g>
			</g>
		</g>
		<g>
			<g>
				<path id="a3sSKatKZC" class="st0" d="M1663.4,590.2L1652,600l0.3-20l0.3-20l11.1,10.2l11.1,10.2L1663.4,590.2z"/>
			</g>
		</g>
		<g>
			<g>
				<g>
					<g id="d7x9cFBuhq">
						<g class="st1">
							<ellipse cx="68.2" cy="195.4" rx="60.3" ry="62.6"/>
						</g>
						<g>
							<path class="st2" d="M68.2,263C32.2,263,3,232.7,3,195.4s29.3-67.6,65.3-67.6c36,0,65.3,30.3,65.3,67.6S104.3,263,68.2,263z
								 M68.2,137.8c-30.5,0-55.3,25.8-55.3,57.6S37.8,253,68.2,253s55.3-25.8,55.3-57.6S98.7,137.8,68.2,137.8z"/>
						</g>
					</g>
				</g>
			</g>
		</g>
		<g>
			<g>
				<path id="cQ1FSErKs" class="st0" d="M56,195.8L46,207l20,0l20,0l-10-11.2l-10-11.2L56,195.8z"/>
			</g>
		</g>
		<g>
			<g>
				<g>
					<g id="c1k6XEL3u">
						<g class="st1">
							<line x1="100.4" y1="245.4" x2="100.4" y2="143.4"/>
						</g>
						<g>
							<rect x="95.4" y="143.4" class="st2" width="10" height="102.1"/>
						</g>
					</g>
				</g>
			</g>
		</g>
		<g>
			<g>
				<g>
					<g id="c1beDcJNnI">
						<g class="st1">
							<ellipse cx="67.8" cy="69.6" rx="60.3" ry="62.6"/>
						</g>
						<g>
							<path class="st2" d="M67.8,137.2c-36,0-65.3-30.3-65.3-67.6S31.8,2,67.8,2s65.3,30.3,65.3,67.6S103.8,137.2,67.8,137.2z
								 M67.8,12c-30.5,0-55.3,25.8-55.3,57.6s24.8,57.6,55.3,57.6c30.5,0,55.3-25.8,55.3-57.6S98.3,12,67.8,12z"/>
						</g>
					</g>
				</g>
			</g>
		</g>
		<g>
			<g>
				<path id="a1IUYcYMX" class="st0" d="M76,69.2L86,58l-20,0l-20,0l10,11.2l10,11.2L76,69.2z"/>
			</g>
		</g>
		<g>
			<g>
				<g>
					<g id="beNO8TO0Z">
						<g class="st1">
							<line x1="35.6" y1="19.6" x2="35.6" y2="121.6"/>
						</g>
						<g>
							<rect x="30.6" y="19.6" class="st2" width="10" height="102.1"/>
						</g>
					</g>
				</g>
			</g>
		</g>
	</g>
</g>
</svg>
