<?xml version="1.0" encoding="utf-8"?>
<!-- Generator: Adobe Illustrator 23.0.1, SVG Export Plug-In . SVG Version: 6.00 Build 0)  -->
<svg version="1.1" id="Layer_1" xmlns="http://www.w3.org/2000/svg" xmlns:xlink="http://www.w3.org/1999/xlink" x="0px" y="0px"
	 viewBox="0 0 144 259" style="enable-background:new 0 0 144 259;" xml:space="preserve">
<style type="text/css">
	.st0{fill:#060606;}
	.st1{opacity:0;}
	.st2{fill:#050505;}
</style>
<g>
	<g>
		<g>
			<g>
				<g>
					<path id="a7OSurUfu" d="M0,0"/>
				</g>
			</g>
		</g>
		<g>
			<g>
				<g>
					<path id="a19ZwlT2CL" d="M0,0"/>
				</g>
			</g>
		</g>
		<g>
			<g>
				<path id="agKOgL5o4" class="st0" d="M1663.4,590.2L1652,600l0.3-20l0.3-20l11.1,10.2l11.1,10.2L1663.4,590.2z"/>
			</g>
		</g>
		<g>
			<g>
				<g>
					<g id="a19xmMJL6k">
						<g class="st1">
							<path d="M6.7,70.1c0-34.5,23.5-62.6,52.5-62.6c29,0,52.5,28,52.5,62.6s-23.5,62.6-52.5,62.6C30.2,132.7,6.7,104.6,6.7,70.1z"
								/>
						</g>
						<g>
							<path class="st2" d="M59.2,137.7c-31.7,0-57.5-30.3-57.5-67.6c0-37.3,25.8-67.6,57.5-67.6c31.7,0,57.5,30.3,57.5,67.6
								C116.7,107.3,90.9,137.7,59.2,137.7z M59.2,12.5c-26.2,0-47.5,25.8-47.5,57.6c0,31.8,21.3,57.6,47.5,57.6
								c26.2,0,47.5-25.8,47.5-57.6C106.7,38.3,85.4,12.5,59.2,12.5z"/>
						</g>
					</g>
				</g>
			</g>
		</g>
		<g>
			<g>
				<path id="b1dyNWKGLd" class="st0" d="M69.3,72.4l10-11.2l-20,0l-20,0l10,11.2l10,11.2L69.3,72.4z"/>
			</g>
		</g>
		<g>
			<g>
				<g>
					<g id="a2H0eYPOBL">
						<g class="st1">
							<line x1="112" y1="257.2" x2="112" y2="4.6"/>
						</g>
						<g>
							<rect x="107" y="4.6" class="st2" width="10" height="252.6"/>
						</g>
					</g>
				</g>
			</g>
		</g>
		<g>
			<g>
				<g>
					<g id="aEWicDmWe">
						<g class="st1">
							<line x1="136.6" y1="257.2" x2="136.6" y2="4.6"/>
						</g>
						<g>
							<rect x="131.6" y="4.6" class="st2" width="10" height="252.6"/>
						</g>
					</g>
				</g>
			</g>
		</g>
	</g>
</g>
</svg>
